<svg width="128" height="92" viewBox="0 0 128 92" fill="none" xmlns="http://www.w3.org/2000/svg">
<path d="M70 48V57L78 50.5L70 48Z" fill="#009419" fill-opacity="0.7"/>
<path d="M63.2424 3C41.7452 3.79988 12.0049 9.89722 7.58478 10.9525C3.16465 12.0077 0.169988 20.8315 7.15548 31.6579C22.9483 33.085 31.4408 34.9944 45.7595 40.9446C60.7329 46.2018 68.8679 48.1012 82.6196 48.434C72.479 54.993 68.1066 61.0542 55.5423 66.4202C55.5423 66.4202 31.5769 80.9958 29.0242 80.8107C26.4715 80.6255 34.0733 87.328 41.1674 88.8658C48.2616 90.4036 77.811 78.2394 82.6909 77.1363C87.5709 76.0331 103.3 80.1054 103.673 79.0514C104.046 77.9974 128.04 31.5523 124.677 28.9497C121.314 26.3471 112.59 21.8826 95.1844 11.6068C84.319 6.24824 77.7276 3.8639 63.2424 3Z" fill="#71C877" stroke="#008616" stroke-width="5"/>
<path d="M44 19C51.6889 15.2778 55.8541 15.0551 63 18.1324" stroke="#002D07" stroke-width="3"/>
<path d="M14.376 19.5078C14.9239 19.4392 15.4235 19.828 15.4922 20.376C15.5608 20.9239 15.172 21.4235 14.624 21.4922C14.0762 21.5606 13.5765 21.1719 13.5078 20.624C13.4394 20.0762 13.8281 19.5765 14.376 19.5078Z" fill="#002D07" stroke="#002D07"/>
</svg>
